# xmcd
#
# Track frame offsets:
#	150
#	12142
#	27022
#	41592
#	53842
#	66619
#	85272
#	100122
#	111075
#	125708
#	141356
#	155638
#
# Disc length: 2276 seconds
#
# Revision: 1
# Processed by: cddbd v1.5.1PL2 Copyright (c) Steve Scherf et al.
# Submitted via: EasyCDDAExtractor 9.0.0.1
#
DISCID=a308e20c
DTITLE=Various Artist - Min Sang
DYEAR=1996
DGENRE=Country
TTITLE0=Jenny Jensen and Septimus - Mammas Trygge Fang
TTITLE1=Jenny Jensen and Septimus - Trubaduren
TTITLE2=Jenny Jensen and Septimus - La Ikke Din Skygge Bli Igjen
TTITLE3=Jenny Jensen and Septimus - Sjømann
TTITLE4=Jenny Jensen and Septimus - Mississippi
TTITLE5=Jenny Jensen and Septimus - Den Store Dagen
TTITLE6=Jenny Jensen and Septimus - Billy Joe
TTITLE7=Jenny Jensen and Septimus - Gyldne Smil Og Hvite Løgner
TTITLE8=Jenny Jensen and Septimus - Fiskepikens Sang
TTITLE9=Jenny Jensen and Septimus - Helt På Jordet
TTITLE10=Jenny Jensen and Septimus - Jimmy
TTITLE11=Jenny Jenssen and Septimus - Min Sang
EXTD=YEAR: 1996\n
EXTT0=
EXTT1=
EXTT2=
EXTT3=
EXTT4=
EXTT5=
EXTT6=
EXTT7=
EXTT8=
EXTT9=
EXTT10=
EXTT11=
PLAYORDER=
